<svg width="60" height="57" viewBox="0 0 60 57" fill="none" xmlns="http://www.w3.org/2000/svg">
<path d="M40 19C43.9782 19 47.7936 20.5013 50.6066 23.1737C53.4196 25.8461 55 29.4707 55 33.25V49.875H45V33.25C45 31.9902 44.4732 30.782 43.5355 29.8912C42.5979 29.0004 41.3261 28.5 40 28.5C38.6739 28.5 37.4021 29.0004 36.4645 29.8912C35.5268 30.782 35 31.9902 35 33.25V49.875H25V33.25C25 29.4707 26.5804 25.8461 29.3934 23.1737C32.2064 20.5013 36.0218 19 40 19Z" stroke="#FDF4E3" stroke-width="4" stroke-linecap="round" stroke-linejoin="round"/>
<path d="M15 21.375H5V49.875H15V21.375Z" stroke="#FDF4E3" stroke-width="4" stroke-linecap="round" stroke-linejoin="round"/>
<path d="M10 14.25C12.7614 14.25 15 12.1234 15 9.5C15 6.87665 12.7614 4.75 10 4.75C7.23858 4.75 5 6.87665 5 9.5C5 12.1234 7.23858 14.25 10 14.25Z" stroke="#FDF4E3" stroke-width="4" stroke-linecap="round" stroke-linejoin="round"/>
</svg>
