<svg width="61" height="61" viewBox="0 0 61 61" fill="none" xmlns="http://www.w3.org/2000/svg">
<path d="M0.928101 30.1125C0.928101 13.5802 14.3302 0.178101 30.8625 0.178101C47.3948 0.178101 60.7969 13.5802 60.7969 30.1125V60.0468H0.928101V30.1125Z" fill="#F3AFA8"/>
<path d="M16.4594 47.5208L19.6452 47.5208L19.6452 44.2241L16.4594 44.2241L16.4594 47.5208ZM42.982 20.4781C42.982 20.2551 42.8073 20.0744 42.5918 20.0744L39.0803 20.0744C38.8648 20.0744 38.6901 20.2551 38.6901 20.4781C38.6901 20.7011 38.8648 20.8819 39.0803 20.8819L42.2016 20.8819L42.2016 24.112C42.2016 24.335 42.3763 24.5157 42.5918 24.5157C42.8073 24.5157 42.982 24.335 42.982 24.112L42.982 20.4781ZM18.3282 46.1579L42.8677 20.7636L42.3159 20.1926L17.7764 45.5869L18.3282 46.1579Z" fill="#2D2D2D"/>
</svg>
